<?xml version="1.0" encoding="utf-8"?>
<svg xmlns="http://www.w3.org/2000/svg" viewBox="0 0 42 60" width="1024" height="1462.86">
  <defs>
    <svg xmlns="http://www.w3.org/2000/svg" shape-rendering="geometricPrecision" class="qrcode" viewBox="0 0 29 29" id="qrcode">
      <rect fill="#FFFFFF" width="100%" height="100%"/>
      <path class="modules" fill="#000000" d="M10 2 m0 0h1v1h-1z M15 2 m0 0h1v1h-1z M17 2 m0 0h1v1h-1z M18 2 m0 0h1v1h-1z M10 3 m0 0h1v1h-1z M12 3 m0 0h1v1h-1z M18 3 m0 0h1v1h-1z M12 4 m0 0h1v1h-1z M15 4 m0 0h1v1h-1z M16 4 m0 0h1v1h-1z M17 4 m0 0h1v1h-1z M10 5 m0 0h1v1h-1z M11 5 m0 0h1v1h-1z M13 5 m0 0h1v1h-1z M14 5 m0 0h1v1h-1z M15 5 m0 0h1v1h-1z M16 5 m0 0h1v1h-1z M13 6 m0 0h1v1h-1z M14 6 m0 0h1v1h-1z M17 6 m0 0h1v1h-1z M11 7 m0 0h1v1h-1z M13 7 m0 0h1v1h-1z M10 8 m0 0h1v1h-1z M12 8 m0 0h1v1h-1z M14 8 m0 0h1v1h-1z M16 8 m0 0h1v1h-1z M18 8 m0 0h1v1h-1z M10 9 m0 0h1v1h-1z M14 9 m0 0h1v1h-1z M17 9 m0 0h1v1h-1z M18 9 m0 0h1v1h-1z M2 10 m0 0h1v1h-1z M4 10 m0 0h1v1h-1z M5 10 m0 0h1v1h-1z M7 10 m0 0h1v1h-1z M8 10 m0 0h1v1h-1z M9 10 m0 0h1v1h-1z M11 10 m0 0h1v1h-1z M12 10 m0 0h1v1h-1z M14 10 m0 0h1v1h-1z M16 10 m0 0h1v1h-1z M18 10 m0 0h1v1h-1z M20 10 m0 0h1v1h-1z M23 10 m0 0h1v1h-1z M25 10 m0 0h1v1h-1z M26 10 m0 0h1v1h-1z M5 11 m0 0h1v1h-1z M6 11 m0 0h1v1h-1z M7 11 m0 0h1v1h-1z M9 11 m0 0h1v1h-1z M10 11 m0 0h1v1h-1z M11 11 m0 0h1v1h-1z M12 11 m0 0h1v1h-1z M14 11 m0 0h1v1h-1z M18 11 m0 0h1v1h-1z M19 11 m0 0h1v1h-1z M21 11 m0 0h1v1h-1z M25 11 m0 0h1v1h-1z M2 12 m0 0h1v1h-1z M4 12 m0 0h1v1h-1z M5 12 m0 0h1v1h-1z M7 12 m0 0h1v1h-1z M8 12 m0 0h1v1h-1z M9 12 m0 0h1v1h-1z M15 12 m0 0h1v1h-1z M16 12 m0 0h1v1h-1z M19 12 m0 0h1v1h-1z M21 12 m0 0h1v1h-1z M22 12 m0 0h1v1h-1z M5 13 m0 0h1v1h-1z M9 13 m0 0h1v1h-1z M15 13 m0 0h1v1h-1z M16 13 m0 0h1v1h-1z M17 13 m0 0h1v1h-1z M18 13 m0 0h1v1h-1z M20 13 m0 0h1v1h-1z M21 13 m0 0h1v1h-1z M23 13 m0 0h1v1h-1z M24 13 m0 0h1v1h-1z M2 14 m0 0h1v1h-1z M3 14 m0 0h1v1h-1z M4 14 m0 0h1v1h-1z M5 14 m0 0h1v1h-1z M8 14 m0 0h1v1h-1z M9 14 m0 0h1v1h-1z M10 14 m0 0h1v1h-1z M12 14 m0 0h1v1h-1z M14 14 m0 0h1v1h-1z M15 14 m0 0h1v1h-1z M16 14 m0 0h1v1h-1z M17 14 m0 0h1v1h-1z M18 14 m0 0h1v1h-1z M19 14 m0 0h1v1h-1z M20 14 m0 0h1v1h-1z M21 14 m0 0h1v1h-1z M22 14 m0 0h1v1h-1z M24 14 m0 0h1v1h-1z M25 14 m0 0h1v1h-1z M26 14 m0 0h1v1h-1z M4 15 m0 0h1v1h-1z M5 15 m0 0h1v1h-1z M6 15 m0 0h1v1h-1z M7 15 m0 0h1v1h-1z M9 15 m0 0h1v1h-1z M11 15 m0 0h1v1h-1z M13 15 m0 0h1v1h-1z M14 15 m0 0h1v1h-1z M16 15 m0 0h1v1h-1z M17 15 m0 0h1v1h-1z M18 15 m0 0h1v1h-1z M20 15 m0 0h1v1h-1z M21 15 m0 0h1v1h-1z M22 15 m0 0h1v1h-1z M26 15 m0 0h1v1h-1z M3 16 m0 0h1v1h-1z M8 16 m0 0h1v1h-1z M11 16 m0 0h1v1h-1z M13 16 m0 0h1v1h-1z M19 16 m0 0h1v1h-1z M22 16 m0 0h1v1h-1z M24 16 m0 0h1v1h-1z M25 16 m0 0h1v1h-1z M2 17 m0 0h1v1h-1z M4 17 m0 0h1v1h-1z M5 17 m0 0h1v1h-1z M6 17 m0 0h1v1h-1z M12 17 m0 0h1v1h-1z M13 17 m0 0h1v1h-1z M16 17 m0 0h1v1h-1z M18 17 m0 0h1v1h-1z M20 17 m0 0h1v1h-1z M21 17 m0 0h1v1h-1z M22 17 m0 0h1v1h-1z M26 17 m0 0h1v1h-1z M4 18 m0 0h1v1h-1z M5 18 m0 0h1v1h-1z M7 18 m0 0h1v1h-1z M8 18 m0 0h1v1h-1z M9 18 m0 0h1v1h-1z M14 18 m0 0h1v1h-1z M15 18 m0 0h1v1h-1z M17 18 m0 0h1v1h-1z M18 18 m0 0h1v1h-1z M19 18 m0 0h1v1h-1z M20 18 m0 0h1v1h-1z M21 18 m0 0h1v1h-1z M22 18 m0 0h1v1h-1z M23 18 m0 0h1v1h-1z M24 18 m0 0h1v1h-1z M25 18 m0 0h1v1h-1z M26 18 m0 0h1v1h-1z M10 19 m0 0h1v1h-1z M11 19 m0 0h1v1h-1z M15 19 m0 0h1v1h-1z M18 19 m0 0h1v1h-1z M22 19 m0 0h1v1h-1z M24 19 m0 0h1v1h-1z M26 19 m0 0h1v1h-1z M10 20 m0 0h1v1h-1z M12 20 m0 0h1v1h-1z M16 20 m0 0h1v1h-1z M18 20 m0 0h1v1h-1z M20 20 m0 0h1v1h-1z M22 20 m0 0h1v1h-1z M24 20 m0 0h1v1h-1z M25 20 m0 0h1v1h-1z M26 20 m0 0h1v1h-1z M10 21 m0 0h1v1h-1z M11 21 m0 0h1v1h-1z M13 21 m0 0h1v1h-1z M16 21 m0 0h1v1h-1z M17 21 m0 0h1v1h-1z M18 21 m0 0h1v1h-1z M22 21 m0 0h1v1h-1z M26 21 m0 0h1v1h-1z M11 22 m0 0h1v1h-1z M12 22 m0 0h1v1h-1z M15 22 m0 0h1v1h-1z M16 22 m0 0h1v1h-1z M18 22 m0 0h1v1h-1z M19 22 m0 0h1v1h-1z M20 22 m0 0h1v1h-1z M21 22 m0 0h1v1h-1z M22 22 m0 0h1v1h-1z M23 22 m0 0h1v1h-1z M25 22 m0 0h1v1h-1z M10 23 m0 0h1v1h-1z M12 23 m0 0h1v1h-1z M17 23 m0 0h1v1h-1z M18 23 m0 0h1v1h-1z M19 23 m0 0h1v1h-1z M20 23 m0 0h1v1h-1z M22 23 m0 0h1v1h-1z M23 23 m0 0h1v1h-1z M24 23 m0 0h1v1h-1z M25 23 m0 0h1v1h-1z M26 23 m0 0h1v1h-1z M10 24 m0 0h1v1h-1z M11 24 m0 0h1v1h-1z M12 24 m0 0h1v1h-1z M15 24 m0 0h1v1h-1z M17 24 m0 0h1v1h-1z M18 24 m0 0h1v1h-1z M19 24 m0 0h1v1h-1z M20 24 m0 0h1v1h-1z M22 24 m0 0h1v1h-1z M24 24 m0 0h1v1h-1z M25 24 m0 0h1v1h-1z M11 25 m0 0h1v1h-1z M13 25 m0 0h1v1h-1z M14 25 m0 0h1v1h-1z M15 25 m0 0h1v1h-1z M19 25 m0 0h1v1h-1z M20 25 m0 0h1v1h-1z M22 25 m0 0h1v1h-1z M24 25 m0 0h1v1h-1z M10 26 m0 0h1v1h-1z M11 26 m0 0h1v1h-1z M12 26 m0 0h1v1h-1z M13 26 m0 0h1v1h-1z M14 26 m0 0h1v1h-1z M17 26 m0 0h1v1h-1z M19 26 m0 0h1v1h-1z M21 26 m0 0h1v1h-1z M22 26 m0 0h1v1h-1z M23 26 m0 0h1v1h-1z M24 26 m0 0h1v1h-1z M25 26 m0 0h1v1h-1z M26 26 m0 0h1v1h-1z"/>
      <path class="outer" fill="#000000" d="M2 2 m0 0h7.02v7.02h-7.02zm1.17 1.17v4.68h4.68v-4.68z"/>
      <path class="inner" fill="#000000" d="M2 2 m2 2h3v3h-3z"/>
      <path class="outer" fill="#000000" d="M2 20 m0 0h7.02v7.02h-7.02zm1.17 1.17v4.68h4.68v-4.68z"/>
      <path class="inner" fill="#000000" d="M2 20 m2 2h3v3h-3z"/>
      <path class="outer" fill="#000000" d="M20 2 m0 0h7.02v7.02h-7.02zm1.17 1.17v4.68h4.68v-4.68z"/>
      <path class="inner" fill="#000000" d="M20 2 m2 2h3v3h-3z"/>
    </svg>
    <g id="text" transform="translate(1.25 -2) scale(1)" fill="#000000">
      <path d="M2.72,10.12q-0.69,0-1.28-0.26t-1.02-0.71l0.5-0.58q0.35,0.37,0.825,0.595t0.985,0.225q0.65,0,1.01-0.295t0.36-0.775q0-0.25-0.085-0.425t-0.23-0.3t-0.345-0.225t-0.43-0.21l-0.94-0.41q-0.23-0.1-0.47-0.24t-0.43-0.34t-0.31-0.475t-0.12-0.635q0-0.37,0.155-0.69t0.43-0.555t0.65-0.365t0.825-0.13q0.59,0,1.09,0.225t0.85,0.585l-0.45,0.54q-0.3-0.29-0.665-0.455t-0.825-0.165q-0.55,0-0.885,0.255t-0.335,0.705q0,0.24,0.095,0.405t0.255,0.29t0.35,0.22t0.39,0.175l0.93,0.4q0.28,0.12,0.53,0.275t0.43,0.36t0.285,0.48t0.105,0.635q0,0.39-0.155,0.73t-0.445,0.595t-0.7,0.4t-0.93,0.145z M8.72,10.12q-0.62,0-1.14-0.23t-0.905-0.665t-0.6-1.07t-0.215-1.435q0-0.79,0.22-1.42t0.61-1.07t0.92-0.675t1.16-0.235q0.6,0,1.055,0.245t0.745,0.565l-0.45,0.54q-0.26-0.28-0.59-0.45t-0.75-0.17q-0.47,0-0.85,0.185t-0.65,0.53t-0.415,0.835t-0.145,1.1q0,0.62,0.145,1.115t0.405,0.845t0.635,0.54t0.845,0.19q0.48,0,0.84-0.195t0.68-0.545l0.46,0.52q-0.39,0.45-0.88,0.7t-1.13,0.25z M13.08,6.33l-0.31,1l1.97,0l-0.31-1q-0.18-0.55-0.34-1.095t-0.32-1.115l-0.04,0q-0.15,0.57-0.31,1.115t-0.34,1.095z M11.08,10l2.22-6.56l0.94,0l2.22,6.56l-0.89,0l-0.62-2l-2.39,0l-0.63,2l-0.85,0z M17.39,10l0-6.56l0.86,0l2.37,4.12l0.71,1.36l0.04,0q-0.03-0.5-0.065-1.035t-0.035-1.055l0-3.39l0.79,0l0,6.56l-0.86,0l-2.38-4.13l-0.71-1.35l-0.04,0q0.04,0.5,0.075,1.015t0.035,1.035l0,3.43l-0.79,0z  M25.86,10l0-6.56l1,0l1.26,3.5q0.12,0.34,0.235,0.685t0.235,0.685l0.04,0q0.12-0.34,0.225-0.685t0.225-0.685l1.24-3.5l1.01,0l0,6.56l-0.78,0l0-3.61q0-0.44,0.04-0.97t0.07-0.97l-0.04,0l-0.52,1.49l-1.24,3.4l-0.55,0l-1.24-3.4l-0.52-1.49l-0.04,0q0.03,0.44,0.065,0.97t0.035,0.97l0,3.61l-0.75,0z M33.13,10l0-6.56l3.78,0l0,0.7l-2.95,0l0,2.06l2.49,0l0,0.71l-2.49,0l0,2.38l3.05,0l0,0.71l-3.88,0z"/>
    </g>
  </defs>
  <rect y="18" width="42" height="42" rx="2" fill="#FFFFFF"/>
  <path d="M24.7 12.6a.5.5 0 01.6.8L21 16.625 16.7 13.4a.5.5 0 01.6-.8l3.7 2.775 3.7-2.775ZM25.4 15.7a.5.5 0 00-.7-.1L21 18.375 17.3 15.6a.5.5 0 00-.6.8l4.3 3.225 4.3-3.225a.5.5 0 00.1-.7ZM2 18a2 2 0 00-2 2v7.5a.5.5 0 001 0V20a1 1 0 011-1h7.5a.5.5 0 000-1H2ZM0 58v-7.5a.5.5 0 011 0V58a1 1 0 001 1h7.5a.5.5 0 010 1H2a2 2 0 01-2-2Zm32 1.5a.5.5 0 01.5-.5H40a1 1 0 001-1v-7.5a.5.5 0 011 0V58a2 2 0 01-2 2h-7.5a.5.5 0 01-.5-.5Zm9-32a.5.5 0 001 0V20a2 2 0 00-2-2h-7.5a.5.5 0 000 1H40a1 1 0 011 1v7.5Z" fill="#000000"/>
  <use x="1" y="0" width="40" height="10" href="#text"/>
  <use x="1" y="19" width="40" height="40" href="#qrcode"/>
</svg>
